<?xml version="1.0" encoding="UTF-8"?>
<svg xmlns="http://www.w3.org/2000/svg" xmlns:xlink="http://www.w3.org/1999/xlink" width="500pt" height="500pt" viewBox="0 0 500 500" version="1.1">
<g id="surface1">
<path style=" stroke:none;fill-rule:nonzero;fill:#FFFFFF;fill-opacity:1;" d="M 59.523438 39.683594 C 54.058594 39.683594 49.601563 44.140625 49.601563 49.601563 L 49.601563 88.046875 C 49.292969 89.285156 44.796875 106.414063 39.992188 125.246094 C 37.511719 134.9375 35.03125 144.777344 33.171875 152.414063 C 32.203125 156.25 31.429688 159.542969 30.847656 162.0625 C 30.574219 163.304688 30.34375 164.386719 30.148438 165.28125 C 29.996094 166.210938 29.761719 166.054688 29.761719 168.652344 C 29.761719 178.570313 33.597656 187.5625 39.683594 194.539063 L 39.683594 446.429688 C 39.683594 451.929688 44.140625 456.347656 49.601563 456.347656 L 246.347656 456.347656 C 247.433594 456.542969 248.519531 456.542969 249.566406 456.347656 L 293.820313 456.347656 C 290.179688 450.070313 287.15625 443.445313 284.714844 436.507813 L 257.9375 436.507813 L 257.9375 257.9375 L 376.984375 257.9375 L 376.984375 279.558594 C 383.457031 278.476563 390.042969 277.777344 396.824219 277.777344 C 418.527344 277.777344 438.832031 283.667969 456.347656 293.820313 L 456.347656 194.539063 C 462.433594 187.5625 466.269531 178.570313 466.269531 168.652344 C 466.269531 166.054688 466.039063 166.210938 465.84375 165.28125 C 465.6875 164.386719 465.457031 163.304688 465.183594 162.0625 C 464.601563 159.542969 463.828125 156.25 462.859375 152.414063 C 461 144.777344 458.519531 134.9375 456.039063 125.246094 C 451.234375 106.414063 446.738281 89.285156 446.429688 88.046875 L 446.429688 49.601563 C 446.429688 44.140625 442.011719 39.683594 436.507813 39.683594 Z M 67.195313 99.207031 L 428.835938 99.207031 C 430.230469 104.554688 432.828125 114.511719 436.816406 130.128906 C 439.296875 139.820313 441.777344 149.625 443.636719 157.179688 C 444.53125 160.9375 445.304688 164.15625 445.808594 166.441406 C 446.078125 167.488281 446.195313 168.261719 446.3125 168.84375 C 446.195313 179.8125 437.59375 188.492188 426.585938 188.492188 C 415.503906 188.492188 406.746094 179.734375 406.746094 168.652344 C 406.785156 163.304688 402.523438 158.886719 397.175781 158.691406 C 391.828125 158.496094 387.292969 162.605469 386.90625 167.953125 C 386.90625 168.1875 386.90625 168.417969 386.90625 168.652344 C 386.90625 179.734375 378.148438 188.492188 367.0625 188.492188 C 355.980469 188.492188 347.222656 179.734375 347.222656 168.652344 C 347.261719 166.324219 346.445313 164.039063 344.972656 162.21875 C 344.78125 161.984375 344.546875 161.714844 344.316406 161.519531 C 343.617188 160.785156 342.804688 160.203125 341.953125 159.738281 C 341.914063 159.738281 341.914063 159.738281 341.914063 159.738281 C 341.640625 159.582031 341.332031 159.425781 341.023438 159.3125 C 340.089844 158.925781 339.121094 158.730469 338.117188 158.613281 C 337.804688 158.613281 337.496094 158.574219 337.148438 158.574219 C 336.488281 158.613281 335.828125 158.691406 335.171875 158.847656 C 334.859375 158.886719 334.550781 158.960938 334.203125 159.078125 C 333.929688 159.195313 333.621094 159.3125 333.308594 159.425781 C 333.308594 159.425781 333.308594 159.425781 333.269531 159.464844 C 332.804688 159.660156 332.339844 159.929688 331.875 160.203125 C 331.796875 160.28125 331.683594 160.359375 331.566406 160.433594 C 331.449219 160.511719 331.332031 160.589844 331.257813 160.707031 C 330.828125 161.015625 330.441406 161.328125 330.054688 161.714844 C 329.628906 162.179688 329.203125 162.722656 328.890625 163.265625 C 328.699219 163.574219 328.542969 163.84375 328.386719 164.15625 C 328.234375 164.425781 328.117188 164.738281 328 165.046875 C 328 165.046875 328 165.046875 328 165.085938 C 327.882813 165.355469 327.808594 165.667969 327.691406 166.015625 C 327.613281 166.324219 327.535156 166.636719 327.496094 166.945313 C 327.496094 166.984375 327.496094 166.984375 327.496094 166.984375 C 327.457031 167.292969 327.417969 167.644531 327.382813 167.953125 C 327.382813 167.953125 327.382813 167.953125 327.382813 167.992188 C 327.382813 168.1875 327.382813 168.417969 327.382813 168.652344 C 327.382813 179.734375 318.621094 188.492188 307.539063 188.492188 C 296.457031 188.492188 287.699219 179.734375 287.699219 168.652344 C 287.738281 166.324219 286.921875 164.039063 285.449219 162.21875 C 285.257813 161.984375 285.023438 161.714844 284.792969 161.519531 C 284.09375 160.785156 283.28125 160.203125 282.429688 159.738281 C 282.390625 159.738281 282.390625 159.738281 282.390625 159.738281 C 282.117188 159.582031 281.808594 159.425781 281.496094 159.3125 C 280.566406 158.925781 279.597656 158.730469 278.589844 158.613281 C 278.28125 158.613281 277.972656 158.574219 277.621094 158.574219 C 276.964844 158.613281 276.304688 158.691406 275.644531 158.847656 C 275.335938 158.886719 275.027344 158.960938 274.675781 159.078125 C 274.40625 159.195313 274.097656 159.3125 273.785156 159.425781 C 273.785156 159.425781 273.785156 159.425781 273.746094 159.464844 C 273.28125 159.660156 272.816406 159.929688 272.351563 160.203125 C 272.273438 160.28125 272.160156 160.359375 272.042969 160.433594 C 271.925781 160.511719 271.808594 160.589844 271.730469 160.707031 C 271.304688 161.015625 270.917969 161.328125 270.53125 161.714844 C 270.105469 162.179688 269.679688 162.722656 269.367188 163.265625 C 269.175781 163.574219 269.019531 163.84375 268.863281 164.15625 C 268.710938 164.425781 268.59375 164.738281 268.476563 165.046875 C 268.476563 165.046875 268.476563 165.046875 268.476563 165.085938 C 268.359375 165.355469 268.285156 165.667969 268.167969 166.015625 C 268.089844 166.324219 268.011719 166.636719 267.972656 166.945313 C 267.972656 166.984375 267.972656 166.984375 267.972656 166.984375 C 267.933594 167.292969 267.894531 167.644531 267.855469 167.953125 C 267.855469 167.953125 267.855469 167.953125 267.855469 167.992188 C 267.855469 168.1875 267.855469 168.417969 267.855469 168.652344 C 267.855469 179.734375 259.097656 188.492188 248.015625 188.492188 C 236.933594 188.492188 228.175781 179.734375 228.175781 168.652344 C 228.214844 166.324219 227.398438 164.039063 225.925781 162.21875 C 225.734375 161.984375 225.5 161.714844 225.269531 161.519531 C 224.570313 160.785156 223.757813 160.203125 222.902344 159.738281 C 222.867188 159.738281 222.867188 159.738281 222.867188 159.738281 C 222.59375 159.582031 222.285156 159.425781 221.972656 159.3125 C 221.042969 158.925781 220.074219 158.730469 219.066406 158.613281 C 218.757813 158.613281 218.449219 158.574219 218.097656 158.574219 C 217.441406 158.613281 216.78125 158.691406 216.121094 158.847656 C 215.8125 158.886719 215.503906 158.960938 215.152344 159.078125 C 214.882813 159.195313 214.574219 159.3125 214.261719 159.425781 C 214.261719 159.425781 214.261719 159.425781 214.222656 159.464844 C 213.757813 159.660156 213.292969 159.929688 212.828125 160.203125 C 212.75 160.28125 212.636719 160.359375 212.519531 160.433594 C 212.402344 160.511719 212.285156 160.589844 212.207031 160.707031 C 211.78125 161.015625 211.394531 161.328125 211.007813 161.714844 C 210.582031 162.179688 210.15625 162.722656 209.84375 163.265625 C 209.652344 163.574219 209.496094 163.84375 209.339844 164.15625 C 209.1875 164.425781 209.070313 164.738281 208.953125 165.046875 C 208.953125 165.046875 208.953125 165.046875 208.953125 165.085938 C 208.835938 165.355469 208.757813 165.667969 208.644531 166.015625 C 208.566406 166.324219 208.488281 166.636719 208.449219 166.945313 C 208.449219 166.984375 208.449219 166.984375 208.449219 166.984375 C 208.410156 167.292969 208.371094 167.644531 208.332031 167.953125 C 208.332031 167.953125 208.332031 167.953125 208.332031 167.992188 C 208.332031 168.1875 208.332031 168.417969 208.332031 168.652344 C 208.332031 179.734375 199.574219 188.492188 188.492188 188.492188 C 177.410156 188.492188 168.652344 179.734375 168.652344 168.652344 C 168.691406 166.324219 167.875 164.039063 166.402344 162.21875 C 166.210938 161.984375 165.976563 161.714844 165.746094 161.519531 C 165.046875 160.785156 164.234375 160.203125 163.378906 159.738281 C 163.339844 159.738281 163.339844 159.738281 163.339844 159.738281 C 163.070313 159.582031 162.761719 159.425781 162.449219 159.3125 C 161.519531 158.925781 160.550781 158.730469 159.542969 158.613281 C 159.234375 158.613281 158.925781 158.574219 158.574219 158.574219 C 157.917969 158.613281 157.257813 158.691406 156.597656 158.847656 C 156.289063 158.886719 155.980469 158.960938 155.628906 159.078125 C 155.359375 159.195313 155.046875 159.3125 154.738281 159.425781 C 154.738281 159.425781 154.738281 159.425781 154.699219 159.464844 C 154.234375 159.660156 153.769531 159.929688 153.304688 160.203125 C 153.226563 160.28125 153.109375 160.359375 152.996094 160.433594 C 152.878906 160.511719 152.761719 160.589844 152.683594 160.707031 C 152.257813 161.015625 151.871094 161.328125 151.484375 161.714844 C 151.058594 162.179688 150.632813 162.722656 150.320313 163.265625 C 150.128906 163.574219 149.972656 163.84375 149.816406 164.15625 C 149.660156 164.425781 149.546875 164.738281 149.429688 165.046875 C 149.429688 165.046875 149.429688 165.046875 149.429688 165.085938 C 149.3125 165.355469 149.234375 165.667969 149.121094 166.015625 C 149.042969 166.324219 148.964844 166.636719 148.925781 166.945313 C 148.925781 166.984375 148.925781 166.984375 148.925781 166.984375 C 148.886719 167.292969 148.847656 167.644531 148.808594 167.953125 C 148.808594 167.953125 148.808594 167.953125 148.808594 167.992188 C 148.808594 168.1875 148.808594 168.417969 148.808594 168.652344 C 148.808594 179.734375 140.050781 188.492188 128.96875 188.492188 C 117.886719 188.492188 109.128906 179.734375 109.128906 168.652344 C 109.128906 168.300781 109.128906 167.992188 109.089844 167.683594 C 108.933594 165.667969 108.15625 163.769531 106.878906 162.257813 C 106.878906 162.21875 106.878906 162.21875 106.878906 162.21875 C 106.027344 161.210938 104.980469 160.359375 103.816406 159.738281 C 103.546875 159.582031 103.238281 159.425781 102.925781 159.3125 C 101.375 158.691406 99.710938 158.457031 98.042969 158.652344 C 97.734375 158.691406 97.386719 158.769531 97.074219 158.847656 C 96.453125 158.960938 95.796875 159.15625 95.214844 159.425781 C 95.214844 159.425781 95.214844 159.425781 95.175781 159.464844 C 94.710938 159.660156 94.246094 159.929688 93.78125 160.203125 C 93.703125 160.28125 93.585938 160.359375 93.472656 160.433594 C 93.355469 160.511719 93.238281 160.589844 93.160156 160.707031 C 91.960938 161.597656 90.953125 162.800781 90.292969 164.15625 C 90.136719 164.425781 90.023438 164.738281 89.90625 165.046875 C 89.90625 165.046875 89.90625 165.046875 89.90625 165.085938 C 89.789063 165.355469 89.710938 165.667969 89.597656 166.015625 C 89.519531 166.324219 89.441406 166.636719 89.402344 166.945313 C 89.402344 166.984375 89.402344 166.984375 89.402344 166.984375 C 89.363281 167.292969 89.324219 167.644531 89.285156 167.953125 C 89.285156 167.953125 89.285156 167.953125 89.285156 167.992188 C 89.285156 168.1875 89.285156 168.417969 89.285156 168.652344 C 89.285156 179.734375 80.527344 188.492188 69.445313 188.492188 C 58.4375 188.492188 49.835938 179.8125 49.679688 168.84375 C 49.835938 168.261719 49.953125 167.488281 50.222656 166.441406 C 50.726563 164.15625 51.503906 160.9375 52.394531 157.179688 C 54.253906 149.625 56.734375 139.820313 59.214844 130.128906 C 63.207031 114.511719 65.800781 104.554688 67.195313 99.207031 Z M 119.046875 257.9375 L 238.09375 257.9375 L 238.09375 436.507813 L 119.046875 436.507813 Z M 396.824219 297.65625 C 371.402344 297.65625 346.019531 307.347656 326.644531 326.683594 C 287.96875 365.359375 287.96875 428.292969 326.644531 467.007813 C 345.980469 486.304688 371.402344 495.992188 396.824219 495.992188 C 422.207031 495.992188 447.628906 486.304688 466.96875 467.007813 C 505.679688 428.292969 505.640625 365.359375 466.96875 326.683594 C 447.628906 307.347656 422.246094 297.65625 396.824219 297.65625 Z M 208.332031 327.382813 C 202.871094 327.382813 198.414063 331.835938 198.414063 337.300781 C 198.414063 342.765625 202.871094 347.222656 208.332031 347.222656 C 213.796875 347.222656 218.253906 342.765625 218.253906 337.300781 C 218.253906 331.835938 213.796875 327.382813 208.332031 327.382813 Z M 287.699219 327.382813 C 282.234375 327.382813 277.777344 331.835938 277.777344 337.300781 C 277.777344 342.765625 282.234375 347.222656 287.699219 347.222656 C 293.164063 347.222656 297.617188 342.765625 297.617188 337.300781 C 297.617188 331.835938 293.164063 327.382813 287.699219 327.382813 Z M 396.824219 337.804688 C 402.328125 337.804688 406.746094 342.222656 406.746094 347.726563 L 406.746094 386.90625 L 445.925781 386.90625 C 451.425781 386.90625 455.84375 391.324219 455.84375 396.824219 C 455.84375 402.328125 451.425781 406.746094 445.925781 406.746094 L 406.746094 406.746094 L 406.746094 445.925781 C 406.746094 451.425781 402.328125 455.84375 396.824219 455.84375 C 391.324219 455.84375 386.90625 451.425781 386.90625 445.925781 L 386.90625 406.746094 L 347.726563 406.746094 C 342.222656 406.746094 337.804688 402.328125 337.804688 396.824219 C 337.804688 391.324219 342.222656 386.90625 347.726563 386.90625 L 386.90625 386.90625 L 386.90625 347.726563 C 386.90625 342.222656 391.324219 337.804688 396.824219 337.804688 Z "/>
</g>
</svg>
