<?xml version="1.0" encoding="UTF-8"?>
<svg xmlns="http://www.w3.org/2000/svg" xmlns:xlink="http://www.w3.org/1999/xlink" width="500pt" height="500pt" viewBox="0 0 500 500" version="1.1">
<g id="surface1">
<path style=" stroke:none;fill-rule:nonzero;fill:#0E0E0D;fill-opacity:1;" d="M 248.015625 19.917969 C 122.109375 19.917969 19.839844 122.1875 19.839844 248.09375 C 19.839844 368.1875 112.925781 466.695313 230.769531 475.570313 C 230.964844 475.570313 231.199219 475.609375 231.429688 475.609375 C 236.933594 475.996094 242.433594 476.269531 248.015625 476.269531 C 253.597656 476.269531 259.097656 475.996094 264.601563 475.609375 C 264.835938 475.609375 265.066406 475.570313 265.261719 475.570313 C 383.105469 466.695313 476.191406 368.1875 476.191406 248.09375 C 476.191406 122.1875 373.921875 19.917969 248.015625 19.917969 Z M 248.015625 39.761719 C 363.1875 39.761719 456.347656 132.921875 456.347656 248.09375 C 456.347656 304.941406 433.5625 356.40625 396.710938 393.957031 C 380.976563 382.488281 361.484375 375.628906 344.003906 369.503906 C 323.351563 362.257813 303.78125 355.398438 298.394531 343.464844 C 297.503906 333.269531 297.582031 325.328125 297.65625 316.179688 L 297.695313 312.304688 C 306.492188 303.9375 317.578125 286.226563 321.375 269.871094 C 327.921875 266.382813 335.945313 258.015625 338.347656 237.980469 C 339.511719 228.019531 336.679688 220.308594 332.730469 215.152344 C 338.078125 196.746094 348.734375 150.164063 330.054688 120.09375 C 322.1875 107.382813 310.253906 99.363281 294.597656 96.183594 C 285.800781 85.292969 269.175781 79.363281 246.96875 79.363281 C 213.253906 79.984375 188.53125 90.332031 173.496094 110.058594 C 155.824219 133.386719 152.492188 168.613281 163.535156 214.84375 C 159.464844 219.996094 156.519531 227.824219 157.722656 237.941406 C 160.125 258.015625 168.109375 266.382813 174.65625 269.871094 C 178.457031 286.226563 189.5 303.9375 198.335938 312.304688 L 198.375 316.066406 C 198.453125 325.25 198.527344 333.234375 197.636719 343.464844 C 192.210938 355.4375 172.566406 362.375 151.792969 369.699219 C 134.433594 375.820313 115.09375 382.679688 99.363281 394.035156 C 62.46875 356.445313 39.683594 304.980469 39.683594 248.09375 C 39.683594 132.921875 132.84375 39.761719 248.015625 39.761719 Z "/>
</g>
</svg>
